Spark - Dot-line - Medium - v1-7.ufo
<glyph name="numbersign" format="1">
  <advance width="440"/>
  <unicode hex="0023"/>
  <outline>
    <contour>
      <point x="43" y="0" type="line"/>
      <point x="123" y="0" type="line"/>
      <point x="157" y="139" type="line"/>
      <point x="232" y="139" type="line"/>
      <point x="198" y="0" type="line"/>
      <point x="278" y="0" type="line"/>
      <point x="312" y="139" type="line"/>
      <point x="389" y="139" type="line"/>
      <point x="389" y="204" type="line"/>
      <point x="327" y="204" type="line"/>
      <point x="350" y="297" type="line"/>
      <point x="428" y="297" type="line"/>
      <point x="428" y="362" type="line"/>
      <point x="366" y="362" type="line"/>
      <point x="399" y="500" type="line"/>
      <point x="319" y="500" type="line"/>
      <point x="286" y="362" type="line"/>
      <point x="211" y="362" type="line"/>
      <point x="244" y="500" type="line"/>
      <point x="164" y="500" type="line"/>
      <point x="131" y="362" type="line"/>
      <point x="53" y="362" type="line"/>
      <point x="53" y="297" type="line"/>
      <point x="115" y="297" type="line"/>
      <point x="92" y="204" type="line"/>
      <point x="15" y="204" type="line"/>
      <point x="15" y="139" type="line"/>
      <point x="77" y="139" type="line"/>
    </contour>
    <contour>
      <point x="172" y="204" type="line"/>
      <point x="195" y="297" type="line"/>
      <point x="270" y="297" type="line"/>
      <point x="247" y="204" type="line"/>
    </contour>
  </outline>
</glyph>
<glyph name="plus" format="1">
  <advance width="440"/>
  <unicode hex="002B"/>
  <outline>
    <contour>
      <point x="44" y="214" type="line"/>
      <point x="186" y="214" type="line"/>
      <point x="186" y="73" type="line"/>
      <point x="254" y="73" type="line"/>
      <point x="254" y="214" type="line"/>
      <point x="396" y="214" type="line"/>
      <point x="396" y="279" type="line"/>
      <point x="254" y="279" type="line"/>
      <point x="254" y="420" type="line"/>
      <point x="186" y="420" type="line"/>
      <point x="186" y="279" type="line"/>
      <point x="44" y="279" type="line"/>
    </contour>
  </outline>
</glyph>
<glyph name="comma" format="1">
  <advance width="250"/>
  <unicode hex="002C"/>
  <outline>
    <contour>
      <point x="128" y="0" type="line"/>
      <point x="128" y="-48"/>
      <point x="111" y="-69"/>
      <point x="67" y="-76" type="curve"/>
      <point x="67" y="-121" type="line"/>
      <point x="141" y="-114"/>
      <point x="182" y="-65"/>
      <point x="182" y="14" type="curve" smooth="yes"/>
      <point x="182" y="115" type="line"/>
      <point x="72" y="115" type="line"/>
      <point x="72" y="0" type="line"/>
    </contour>
  </outline>
</glyph>
<glyph name="hyphen" format="1">
  <advance width="350"/>
  <unicode hex="002D"/>
  <outline>
    <contour>
      <point x="45" y="213" type="line"/>
      <point x="305" y="213" type="line"/>
      <point x="305" y="280" type="line"/>
      <point x="45" y="280" type="line"/>
    </contour>
  </outline>
</glyph>
<glyph name="three" format="1">
  <advance width="440"/>
  <unicode hex="0033"/>
  <outline>
    <contour>
      <point x="187" y="284" type="line"/>
      <point x="187" y="216" type="line"/>
      <point x="232" y="216" type="line" smooth="yes"/>
      <point x="285" y="216"/>
      <point x="329" y="197"/>
      <point x="329" y="144" type="curve" smooth="yes"/>
      <point x="329" y="86"/>
      <point x="283" y="63"/>
      <point x="225" y="63" type="curve" smooth="yes"/>
      <point x="148" y="63"/>
      <point x="117" y="101"/>
      <point x="112" y="157" type="curve"/>
      <point x="34" y="157" type="line"/>
      <point x="37" y="56"/>
      <point x="121" y="-9"/>
      <point x="223" y="-9" type="curve" smooth="yes"/>
      <point x="325" y="-9"/>
      <point x="410" y="42"/>
      <point x="410" y="144" type="curve" smooth="yes"/>
      <point x="410" y="197"/>
      <point x="372" y="243"/>
      <point x="322" y="257" type="curve"/>
      <point x="322" y="259" type="line"/>
      <point x="365" y="276"/>
      <point x="395" y="319"/>
      <point x="395" y="368" type="curve"/>
      <point x="395" y="461"/>
      <point x="325" y="509"/>
      <point x="232" y="509" type="curve" smooth="yes"/>
      <point x="132" y="509"/>
      <point x="60" y="449"/>
      <point x="53" y="348" type="curve"/>
      <point x="131" y="348" type="line"/>
      <point x="138" y="406"/>
      <point x="172" y="438"/>
      <point x="229" y="438" type="curve" smooth="yes"/>
      <point x="278" y="438"/>
      <point x="314" y="413"/>
      <point x="314" y="364" type="curve"/>
      <point x="314" y="311"/>
      <point x="275" y="284"/>
      <point x="222" y="284" type="curve" smooth="yes"/>
    </contour>
  </outline>
</glyph>
<glyph name="four" format="1">
  <advance width="440"/>
  <unicode hex="0034"/>
  <outline>
    <contour>
      <point x="22" y="100" type="line"/>
      <point x="263" y="100" type="line"/>
      <point x="263" y="0" type="line"/>
      <point x="342" y="0" type="line"/>
      <point x="342" y="100" type="line"/>
      <point x="419" y="100" type="line"/>
      <point x="419" y="169" type="line"/>
      <point x="342" y="169" type="line"/>
      <point x="342" y="502" type="line"/>
      <point x="282" y="502" type="line"/>
      <point x="22" y="152" type="line"/>
    </contour>
    <contour>
      <point x="116" y="169" type="line"/>
      <point x="263" y="370" type="line"/>
      <point x="263" y="169" type="line"/>
    </contour>
  </outline>
</glyph>
<glyph name="six" format="1">
  <advance width="440"/>
  <unicode hex="0036"/>
  <outline>
    <contour>
      <point x="241" y="333" type="curve" smooth="yes"/>
      <point x="193" y="333"/>
      <point x="147" y="315"/>
      <point x="120" y="283" type="curve"/>
      <point x="118" y="283" type="line"/>
      <point x="125" y="386"/>
      <point x="170" y="440"/>
      <point x="238" y="440" type="curve" smooth="yes"/>
      <point x="289" y="440"/>
      <point x="319" y="417"/>
      <point x="327" y="371" type="curve"/>
      <point x="403" y="371" type="line"/>
      <point x="400" y="406"/>
      <point x="385" y="435"/>
      <point x="366" y="457" type="curve" smooth="yes"/>
      <point x="338" y="491"/>
      <point x="299" y="509"/>
      <point x="241" y="509" type="curve" smooth="yes"/>
      <point x="107" y="509"/>
      <point x="35" y="392"/>
      <point x="35" y="235" type="curve"/>
      <point x="35" y="141"/>
      <point x="54" y="80"/>
      <point x="95" y="39" type="curve" smooth="yes"/>
      <point x="128" y="6"/>
      <point x="177" y="-9"/>
      <point x="229" y="-9" type="curve" smooth="yes"/>
      <point x="329" y="-9"/>
      <point x="411" y="60"/>
      <point x="411" y="166" type="curve" smooth="yes"/>
      <point x="411" y="273"/>
      <point x="340" y="333"/>
    </contour>
    <contour>
      <point x="227" y="62" type="curve" smooth="yes"/>
      <point x="153" y="62"/>
      <point x="125" y="115"/>
      <point x="125" y="165" type="curve" smooth="yes"/>
      <point x="125" y="216"/>
      <point x="154" y="265"/>
      <point x="229" y="265" type="curve" smooth="yes"/>
      <point x="304" y="265"/>
      <point x="332" y="216"/>
      <point x="332" y="163" type="curve" smooth="yes"/>
      <point x="332" y="111"/>
      <point x="301" y="62"/>
    </contour>
  </outline>
</glyph>
<glyph name="D" format="1">
  <advance width="445"/>
  <unicode hex="0044"/>
  <outline>
    <contour>
      <point x="46" y="0" type="line"/>
      <point x="128" y="0" type="line"/>
      <point x="128" y="500" type="line"/>
      <point x="46" y="500" type="line"/>
    </contour>
    <contour>
      <point x="178" y="500" type="curve" smooth="yes"/>
      <point x="100" y="500" type="line"/>
      <point x="100" y="428" type="line"/>
      <point x="174" y="428" type="line" smooth="yes"/>
      <point x="297" y="428"/>
      <point x="347" y="377"/>
      <point x="347" y="254" type="curve" smooth="yes"/>
      <point x="347" y="132"/>
      <point x="299" y="72"/>
      <point x="176" y="72" type="curve" smooth="yes"/>
      <point x="109" y="72" type="line"/>
      <point x="109" y="0" type="line"/>
      <point x="172" y="0" type="line" smooth="yes"/>
      <point x="333" y="0"/>
      <point x="430" y="80"/>
      <point x="430" y="250" type="curve" smooth="yes"/>
      <point x="430" y="421"/>
      <point x="340" y="500"/>
    </contour>
  </outline>
</glyph>
<glyph name="S" format="1">
  <advance width="416"/>
  <unicode hex="0053"/>
  <outline>
    <contour>
      <point x="239" y="203" type="line" smooth="yes"/>
      <point x="287" y="189"/>
      <point x="316" y="173"/>
      <point x="316" y="136" type="curve" smooth="yes"/>
      <point x="316" y="84"/>
      <point x="271" y="63"/>
      <point x="215" y="63" type="curve" smooth="yes"/>
      <point x="138" y="63"/>
      <point x="103" y="100"/>
      <point x="98" y="157" type="curve"/>
      <point x="20" y="157" type="line"/>
      <point x="23" y="56"/>
      <point x="107" y="-9"/>
      <point x="209" y="-9" type="curve" smooth="yes"/>
      <point x="311" y="-9"/>
      <point x="396" y="42"/>
      <point x="396" y="144" type="curve" smooth="yes"/>
      <point x="396" y="223"/>
      <point x="348" y="252"/>
      <point x="266" y="276" type="curve" smooth="yes"/>
      <point x="186" y="299" type="line" smooth="yes"/>
      <point x="142" y="312"/>
      <point x="120" y="332"/>
      <point x="120" y="367" type="curve"/>
      <point x="120" y="415"/>
      <point x="159" y="438"/>
      <point x="208" y="438" type="curve" smooth="yes"/>
      <point x="268" y="438"/>
      <point x="302" y="408"/>
      <point x="309" y="348" type="curve"/>
      <point x="393" y="348" type="line"/>
      <point x="386" y="452"/>
      <point x="314" y="509"/>
      <point x="212" y="509" type="curve" smooth="yes"/>
      <point x="116" y="509"/>
      <point x="39" y="460"/>
      <point x="39" y="368" type="curve"/>
      <point x="39" y="292"/>
      <point x="79" y="250"/>
      <point x="154" y="228" type="curve" smooth="yes"/>
    </contour>
  </outline>
</glyph>
<glyph name="U" format="1">
  <advance width="478"/>
  <unicode hex="0055"/>
  <outline>
    <contour>
      <point x="353" y="198" type="curve" smooth="yes"/>
      <point x="353" y="500" type="line"/>
      <point x="436" y="500" type="line"/>
      <point x="436" y="194" type="line" smooth="yes"/>
      <point x="436" y="40"/>
      <point x="348" y="-9"/>
      <point x="237" y="-9" type="curve" smooth="yes"/>
      <point x="126" y="-9"/>
      <point x="42" y="52"/>
      <point x="42" y="193" type="curve" smooth="yes"/>
      <point x="42" y="500" type="line"/>
      <point x="125" y="500" type="line"/>
      <point x="125" y="197" type="line" smooth="yes"/>
      <point x="125" y="108"/>
      <point x="166" y="66"/>
      <point x="241" y="66" type="curve" smooth="yes"/>
      <point x="316" y="66"/>
      <point x="353" y="111"/>
    </contour>
  </outline>
</glyph>
<glyph name="yen" format="1">
  <advance width="440"/>
  <unicode hex="00A5"/>
  <outline>
    <contour>
      <point x="179" y="0" type="line"/>
      <point x="261" y="0" type="line"/>
      <point x="261" y="217" type="line"/>
      <point x="439" y="500" type="line"/>
      <point x="351" y="500" type="line"/>
      <point x="220" y="282" type="line"/>
      <point x="89" y="500" type="line"/>
      <point x="1" y="500" type="line"/>
      <point x="179" y="217" type="line"/>
    </contour>
    <contour>
      <point x="35" y="103" type="line"/>
      <point x="405" y="103" type="line"/>
      <point x="405" y="163" type="line"/>
      <point x="35" y="163" type="line"/>
    </contour>
    <contour>
      <point x="35" y="215" type="line"/>
      <point x="405" y="215" type="line"/>
      <point x="405" y="275" type="line"/>
      <point x="260" y="275" type="line"/>
      <point x="220" y="233" type="line"/>
      <point x="180" y="275" type="line"/>
      <point x="35" y="275" type="line"/>
    </contour>
  </outline>
</glyph>
<glyph name="plusminus" format="1">
  <advance width="440"/>
  <unicode hex="00B1"/>
  <outline>
    <contour>
      <point x="44" y="268" type="line"/>
      <point x="186" y="268" type="line"/>
      <point x="186" y="127" type="line"/>
      <point x="254" y="127" type="line"/>
      <point x="254" y="268" type="line"/>
      <point x="396" y="268" type="line"/>
      <point x="396" y="333" type="line"/>
      <point x="254" y="333" type="line"/>
      <point x="254" y="474" type="line"/>
      <point x="186" y="474" type="line"/>
      <point x="186" y="333" type="line"/>
      <point x="44" y="333" type="line"/>
    </contour>
    <contour>
      <point x="44" y="0" type="line"/>
      <point x="396" y="0" type="line"/>
      <point x="396" y="65" type="line"/>
      <point x="44" y="65" type="line"/>
    </contour>
  </outline>
</glyph>
<glyph name="emdash" format="1">
  <advance width="620"/>
  <unicode hex="2014"/>
  <outline>
    <contour>
      <point x="43" y="215" type="line"/>
      <point x="577" y="215" type="line"/>
      <point x="577" y="278" type="line"/>
      <point x="43" y="278" type="line"/>
    </contour>
  </outline>
</glyph>
<glyph name="line.down.four" format="1">
  <advance width="500"/>
  <outline>
    <contour>
      <point x="250" y="-35" type="line"/>
      <point x="750" y="-355" type="line"/>
      <point x="750" y="-284" type="line"/>
      <point x="250" y="36" type="line"/>
    </contour>
  </outline>
</glyph>
<glyph name="line.down.nine" format="1">
  <advance width="500"/>
  <outline>
    <contour>
      <point x="250" y="-51" type="line"/>
      <point x="750" y="-771" type="line"/>
      <point x="750" y="-669" type="line"/>
      <point x="250" y="51" type="line"/>
    </contour>
  </outline>
</glyph>
<glyph name="line.down.six" format="1">
  <advance width="500"/>
  <outline>
    <contour>
      <point x="250" y="-41" type="line"/>
      <point x="750" y="-521" type="line"/>
      <point x="750" y="-439" type="line"/>
      <point x="250" y="41" type="line"/>
    </contour>
  </outline>
</glyph>
<glyph name="line.up.five" format="1">
  <advance width="500"/>
  <outline>
    <contour>
      <point x="250" y="-37" type="line"/>
      <point x="750" y="364" type="line"/>
      <point x="750" y="438" type="line"/>
      <point x="250" y="37" type="line"/>
    </contour>
  </outline>
</glyph>
<glyph name="line.up.four" format="1">
  <advance width="500"/>
  <outline>
    <contour>
      <point x="250" y="-35" type="line"/>
      <point x="750" y="286" type="line"/>
      <point x="750" y="357" type="line"/>
      <point x="250" y="36" type="line"/>
    </contour>
  </outline>
</glyph>
<glyph name="line.up.nine" format="1">
  <advance width="500"/>
  <outline>
    <contour>
      <point x="250" y="-51" type="line"/>
      <point x="750" y="670" type="line"/>
      <point x="750" y="772" type="line"/>
      <point x="250" y="51" type="line"/>
    </contour>
  </outline>
</glyph>
<glyph name="line.up.one" format="1">
  <advance width="500"/>
  <outline>
    <contour>
      <point x="250" y="-30" type="line"/>
      <point x="750" y="50" type="line"/>
      <point x="750" y="110" type="line"/>
      <point x="250" y="30" type="line"/>
    </contour>
  </outline>
</glyph>
<glyph name="line.up.seven" format="1">
  <advance width="500"/>
  <outline>
    <contour>
      <point x="250" y="-43" type="line"/>
      <point x="750" y="518" type="line"/>
      <point x="750" y="604" type="line"/>
      <point x="250" y="43" type="line"/>
    </contour>
  </outline>
</glyph>
<glyph name="line.up.six" format="1">
  <advance width="500"/>
  <outline>
    <contour>
      <point x="250" y="-41" type="line"/>
      <point x="750" y="440" type="line"/>
      <point x="750" y="522" type="line"/>
      <point x="250" y="41" type="line"/>
    </contour>
  </outline>
</glyph>
<glyph name="line.up.three" format="1">
  <advance width="500"/>
  <outline>
    <contour>
      <point x="250" y="-32" type="line"/>
      <point x="750" y="209" type="line"/>
      <point x="750" y="273" type="line"/>
      <point x="250" y="32" type="line"/>
    </contour>
  </outline>
</glyph>
